<?xml version="1.0" encoding="utf-8"?>
<!-- Generator: Adobe Illustrator 24.1.2, SVG Export Plug-In . SVG Version: 6.00 Build 0)  -->
<svg version="1.1"
	 id="svg2" inkscape:version="0.48.5 r10040" sodipodi:docname="arobase-symbol.svg" xmlns:cc="http://creativecommons.org/ns#" xmlns:dc="http://purl.org/dc/elements/1.1/" xmlns:inkscape="http://www.inkscape.org/namespaces/inkscape" xmlns:rdf="http://www.w3.org/1999/02/22-rdf-syntax-ns#" xmlns:sodipodi="http://sodipodi.sourceforge.net/DTD/sodipodi-0.dtd" xmlns:svg="http://www.w3.org/2000/svg"
	 xmlns="http://www.w3.org/2000/svg" xmlns:xlink="http://www.w3.org/1999/xlink" x="0px" y="0px" viewBox="0 0 24 24"
	 style="enable-background:new 0 0 24 24;" xml:space="preserve">
<style type="text/css">
	.st0{fill:#FFFFFF;}
</style>
<sodipodi:namedview  bordercolor="#666666" borderopacity="1.0" fit-margin-bottom="0" fit-margin-left="0" fit-margin-right="0" fit-margin-top="0" id="base" inkscape:current-layer="layer1" inkscape:cx="87.162274" inkscape:cy="258.73061" inkscape:document-units="px" inkscape:pageopacity="0.0" inkscape:pageshadow="2" inkscape:window-height="1055" inkscape:window-maximized="1" inkscape:window-width="1920" inkscape:window-x="0" inkscape:window-y="0" inkscape:zoom="0.7" pagecolor="#ffffff" showgrid="false">
	</sodipodi:namedview>
<g id="layer1" transform="translate(-141.40915,-381.85612)" inkscape:groupmode="layer" inkscape:label="Calque 1">
	<path id="path2996" inkscape:connector-curvature="0" class="st0" d="M151.4,405.7c-2.6-0.4-5.1-1.7-6.8-3.5
		c-1.3-1.5-2.4-3.5-2.8-5.6c-0.6-2.9,0.1-6.8,1.8-9.5c3.2-5.1,9.9-6.7,15.7-3.9c4.7,2.3,6.8,7,5.4,12c-0.3,1.1-1,2.8-1.4,3.2
		c-0.5,0.6-1.4,1.3-2.1,1.7c-0.9,0.4-2.1,0.4-3.1,0c-0.9-0.4-1.6-1-1.9-1.5c-0.1-0.2-0.2-0.4-0.3-0.4c0,0-0.3,0.2-0.5,0.4
		c-1.2,1.2-3.5,1.9-5.1,1.6c-2.1-0.3-3.5-1.7-3.8-3.7c-0.3-1.9,0.6-4.6,2.2-6.6c1.8-2.4,4.4-3.4,6.8-2.8c2.8,0.7,3.7,2.9,2.9,7
		c-0.3,1.7-0.4,2.8-0.1,3.3c0.3,0.4,1.1,0.8,1.6,0.7c0.7-0.2,1.5-0.8,1.8-1.6c0.9-1.7,1.2-4.4,0.8-6c-0.8-3.3-4-5.8-8-6.2
		c-3.4-0.4-6.6,0.9-8.4,3.4c-1.6,2.1-2.4,5.2-2.1,7.6c0.3,2.3,1.1,4,2.6,5.5c0.9,0.9,1.2,1.2,2.2,1.6c1.7,0.8,2.6,1,4.7,1.1
		c1.4,0,1.9,0,2.8-0.3c2-0.5,3.2-1.1,5.1-2.3c0.5-0.3,1-0.6,1.2-0.6c0.4,0,0.9,0.3,1.1,0.6c0.4,0.8,0.1,1.3-1.3,2.2
		C159.1,405.3,155.1,406.3,151.4,405.7L151.4,405.7z M152.5,397.6c0.7-0.2,1.7-1,2.6-2c0.6-0.7,0.7-0.8,0.9-1.6
		c0.7-3.1,0.5-4.2-0.9-4.6c-0.8-0.3-1.7-0.2-2.6,0.3c-2.9,1.4-4.8,6.6-2.8,7.8C150.5,397.9,151.4,397.9,152.5,397.6z"/>
</g>
</svg>
