<?xml version="1.0" encoding="UTF-8"?>
<svg xmlns="http://www.w3.org/2000/svg" xmlns:xlink="http://www.w3.org/1999/xlink" viewBox="0 0 30 30" width="30px" height="30px">
<g id="surface71968614">
<path style=" stroke:none;fill-rule:nonzero;fill:rgb(100%,100%,100%);fill-opacity:1;" d="M 23.75 3.75 L 6.25 3.75 C 4.867188 3.75 3.75 4.867188 3.75 6.25 L 3.75 23.75 C 3.75 25.132812 4.867188 26.25 6.25 26.25 L 15.777344 26.25 L 15.777344 17.546875 L 12.847656 17.546875 L 12.847656 14.140625 L 15.777344 14.140625 L 15.777344 11.636719 C 15.777344 8.730469 17.550781 7.148438 20.144531 7.148438 C 21.019531 7.144531 21.890625 7.191406 22.761719 7.277344 L 22.761719 10.316406 L 20.976562 10.316406 C 19.5625 10.316406 19.289062 10.984375 19.289062 11.96875 L 19.289062 14.136719 L 22.664062 14.136719 L 22.222656 17.542969 L 19.265625 17.542969 L 19.265625 26.25 L 23.75 26.25 C 25.132812 26.25 26.25 25.132812 26.25 23.75 L 26.25 6.25 C 26.25 4.867188 25.132812 3.75 23.75 3.75 Z M 23.75 3.75 "/>
</g>
</svg>
